<svg xmlns="http://www.w3.org/2000/svg" viewBox="0 0 500 500"><g id="freepik--Light--inject-168"><g id="freepik--light--inject-168"><circle cx="250" cy="211.13" r="195.28" transform="translate(-76.07 238.62) rotate(-45)" style="fill:#3F7929;opacity:0.07"></circle><circle cx="250" cy="211.13" r="153.45" transform="translate(-76.07 238.62) rotate(-45)" style="fill:#3F7929;opacity:0.07"></circle><circle cx="250" cy="211.13" r="111.29" style="fill:#3F7929;opacity:0.07"></circle></g></g><g id="freepik--Sea--inject-168"><g id="freepik--sea--inject-168"><ellipse cx="250" cy="338.03" rx="243.99" ry="148.24" style="fill:#3F7929"></ellipse><ellipse cx="250" cy="338.03" rx="243.99" ry="148.24" style="opacity:0.30000000000000004"></ellipse><g style="opacity:0.1"><path d="M432.66,436.3a97.87,97.87,0,0,0-11.11-4c-3.28-.85-7.7-1.24-11.21.35a9.46,9.46,0,0,0-4.47,4.31,19.55,19.55,0,0,0-2.45,7.5c-.24,2.55.13,5-.48,7.63a10.51,10.51,0,0,1-.57,1.69q4.15-2,8.21-4.19c.4-1.52.82-3,1.27-4.57a12.62,12.62,0,0,1,1.52-3.56,5.24,5.24,0,0,1,3.2-2.28,4.5,4.5,0,0,1,1.92.26c1.87.52,4.47.93,7.12,1.45Q429.24,438.65,432.66,436.3Z" style="fill:#3F7929"></path><path d="M35.92,292c8.53-2.15,18.18-5.26,21.43-10.27,3.52-5.37-2.17-9.84-5.67-14.25-3.32-4.17-4.63-9.33-1.74-14.37Q44.38,258,39.53,263a14.33,14.33,0,0,0,1.68,4.43c1.06,1.79,2.5,3.29,3.45,5.17a7.51,7.51,0,0,1,.28,6.62c-1.65,3.6-6,5.65-9.71,6.47-4.29.95-8.47,1-12.76,1.84-.74.15-1.48.34-2.23.55A109.73,109.73,0,0,0,14,300.43C19.06,296.29,27.94,294.05,35.92,292Z" style="fill:#3F7929"></path><path d="M164.16,476.83Q170,478.17,176,479.3a33.75,33.75,0,0,0-10.19-2.37C165.23,476.88,164.69,476.86,164.16,476.83Z" style="fill:#3F7929"></path><path d="M479.33,388.7c-2.37.56-4.8,1-7.18,1.37-7.51,1.13-14.45-.69-21.09-2.25-6.1-1.44-12.1-3.11-18.41-4.1-2.36-.38-4.68-.46-6.67,2.22-1.52,2.05-1.21,4.51-3.38,6.33-2.83,2.36-8.78,2.71-12.06,1.4s-4.62-3.68-6.13-5.87c-6.36-9.17-17.58-16.7-32.14-21.57-2.57-.86-5.36-1.71-6.54-3.29s-.56-3.79.18-5.79l3.73-10.4a4.64,4.64,0,0,1,1.65-2.46c1.56-1.12,4.14-1.47,6.36-1.56,8.36-.34,16.09,1.61,24.55,0,6.82-1.25,12.59-4.55,18.5-7.28a117.77,117.77,0,0,1,20.18-7.07c9.18-2.3,19.42-3.57,27-1.52s10.68,8.39,4.43,13.15c-2,1.54-4.75,2.77-6.56,4.39-3.93,3.47-2.23,7.49,1.07,10.22,3.91,3.26,9.65,5.52,15,7.94a61.07,61.07,0,0,1,7.61,4c.58-1.8,1.09-3.62,1.56-5.44a42.25,42.25,0,0,1-5.62-2.84c-2.06-1.23-4.52-1.7-6.51-3.1-2.43-1.71-3.87-4.06-2.89-6.59s4.06-4.83,6.1-7.26c4.62-5.56,3.12-11.86-3.62-15-3.4-1.58-8.32-2.94-7.58-5.81s6.22-4.71,10.68-6.39a76,76,0,0,0,8.18-3.62q-1.25-4.05-2.87-8.06c-3.76,4.74-10.51,8.31-15.61,10.32-9,3.54-19.56,5.12-27.86,9.25-4.32,2.13-9,5.19-13.81,4.8-3.27-.27-4.89-2.17-5.16-4.09s.36-4,0-5.91c-.64-3.13-4.08-5.51-7.93-7.43-11-5.47-26.29-8.58-33.11-16.14-1.22-1.34-2.1-3-.75-4.64,2.84-3.44,11.52-3.24,16.65-5.85,5.3-2.7,4.59-7,3.29-10.33l-4-10c-.95-2.4-1.92-4.82-1.41-7.45s2.68-5.51,6.67-7.32c5.71-2.58,12.91-2.18,18.52-1.07a41.88,41.88,0,0,1,11.76,3.81c15.74,8.67,5.76,27.73,21,36.69a21.66,21.66,0,0,0,12.73,2.73c3.9-.35,7.85-1.67,11.71-2.09q-2.49-4.19-5.39-8.3a21.57,21.57,0,0,1-8.45-1.1c-8-3.36-8.23-14.32-12.2-21.83-.09-.17-.19-.33-.29-.5a179.21,179.21,0,0,0-14.11-11.6q-1.14-.51-2.31-1c-7-2.65-14.57-4.11-21.76-6.38-1-.33-2-.71-2.34-1.64-.47-1.27.4-4.16,1.6-6.93a284.71,284.71,0,0,0-55.09-23c-3.74.2-7.51.53-11.26.81a2.77,2.77,0,0,1-1.54-.2c-.76-.49-.55-1.72-.38-2.74.1-.51.17-1,.22-1.52-2.32-.61-4.65-1.18-7-1.74a11.56,11.56,0,0,1-.36,3.34,11.31,11.31,0,0,1-6.83,7.74c-2,.9-4.44,1.41-6.37,2.37a10.28,10.28,0,0,0-4,3.59c-2.78,4.32-1.4,8.9,3.5,11.46,2.6,1.34,6,2.14,8.88,3.3a18.49,18.49,0,0,1,6.39,4.1c2,2.07,2.66,5.2-1,7.25a21.27,21.27,0,0,1-5.95,1.87c-9.54,2-20.91,3.8-26.86.39-4.37-2.51-4-7-6.53-10.32-1.5-2-4-3.49-6.67-4.86-9.58-4.9-22.14-7.94-36-8.73-4.85-.27-10.45-.49-12.54-2.83-1.23-1.39-.89-3.21-.51-4.94,1.11-5.33,3.51-11.12,8.64-14.92,2.38-1.77,10.84-5.78,9.31-8.86q-7.9-.24-15.82-.17a11.77,11.77,0,0,1,3.26,1.16c.7.41,1.24.93,1.23,1.56,0,1.69-3.55,2.95-6.08,4.18a12.73,12.73,0,0,0-5.84,5.1,19.28,19.28,0,0,1-1.39,2.91,5.81,5.81,0,0,1-3.78,2.19c-2.35.36-3.84-.77-5.5-1.46-6.09-2.63-16.87.22-24.26-1.28a29.51,29.51,0,0,1-6.55-2.42c-5-2.24-10.67-4.05-16.08-6q-5.21.93-10.36,2A54.11,54.11,0,0,1,187,203.86c5.51,3.08,11.16,6.67,19.68,6.71,5.81,0,12.15-1.64,17.82-1.3,8.82.55,12.74,6.95,7.3,12-2.12,2-5.22,3.59-8,5.3-5.58,3.39-10.24,7.39-12.1,11.59s-.66,8.55,4.21,10.92c2.78,1.34,10,2.09,7.63,4.33-3.73,3.55-12.74.48-18.63-.3a48.81,48.81,0,0,0-14.29-.06c-6.56,1-13.47,2.95-19.61,2.09-4.45-.61-10.27-2.25-11.45-6.79-1-3.67,1.57-8-.11-11.43-2.23-4.59-10.91-6.34-18.89-7.58s-16.79-2.71-19.68-7.1c-2-3-.71-6.79,2.41-10.12.37-.4.78-.81,1.2-1.2q-6.76,2.48-13.33,5.23a18.89,18.89,0,0,0,.88,9.15c1,2.53,2.59,5.25,1,8.21-1,2-3.24,3.39-5.23,4.56-2.55,1.52-5.27,3.07-7.91,3.17-3.16.13-5.36-1.9-7.56-3.61a40.84,40.84,0,0,0-11.95-6.11c-1,.57-1.94,1.13-2.9,1.72q-9.14,5.55-17.09,11.52A31.79,31.79,0,0,1,76,241.85c5.57.57,9.31,3,12.47,5.48,1.86,1.45,3.68,3,4,5,.2,1.52-.55,3.15-.61,4.71-.23,4,3.85,7.05,8.22,9.56,4.15,2.39,9,5.43,6.3,9.25a32.78,32.78,0,0,1-3.06,3.07c-3.08,3.16-3.08,6.88,0,9.2,3.57,2.69,10.67,3.47,13,6.69s-2.18,8.31-8.86,9.92-13.45,0-19.83,2c-6.11,1.9-9.57,6.4-15.78,8-6,1.59-11.58-.19-17.18-.9a50.24,50.24,0,0,0-16.8,1c-3.28.72-6.47,1.77-9.78,2.32a18.73,18.73,0,0,1-8.88-.72,15.17,15.17,0,0,1-7.85-5.61,5.87,5.87,0,0,1-.69-1.34A94.08,94.08,0,0,0,8,319.1c3.9,1.48,7.44,3.46,7.73,6.35s-2.68,5.94-3.8,8.94c-1.72,4.59,1.05,8.77,4.53,12.34s7.71,6.9,9.24,11.1a6.94,6.94,0,0,1-1.36,7.26c-2.08,2.39-5.86,4.26-9.27,6.18-.78.44-1.57.9-2.35,1.37q1.27,3.23,2.79,6.42c1.4-1.09,2.93-2.15,4.48-3.16,5.67-3.66,12.16-7.16,15.77-11.43,3.31-3.93,3.82-8.27,1.36-11.6-3.78-5.17-13.89-7.72-16.71-13.19s3.18-12.79,13-16.28a51.6,51.6,0,0,1,19.66-2.53,54.11,54.11,0,0,1,25.07,7.26c5.19,3.12,9.26,7.6,6.27,12.52-2.74,4.52-11,8.44-11.74,13-.68,3.79,4.23,6.37,9.21,8.12s10.72,3.39,12.63,6.68c1.61,2.76.19,6.2,1,9.19,2.32,8.8,21.85,10.58,28.73,18,.9,1,1.35,2.46-.44,3.36a8.26,8.26,0,0,1-3,.64c-4.56.38-9.63,1.77-12.41-.8s-2.84-5.8-5.68-8.15c-4.59-3.84-12.92-5.9-22-5.45S62,388.59,55.15,393c-2,1.31-3.82,2.73-6,4-5.55,3.14-13.29,4.56-19.95,4.21a147.74,147.74,0,0,0,15.47,17c10.67,6.68,27.14,6.54,34.88,16.44,2.78,3.56,4.16,8.09,5.49,12.66a269,269,0,0,0,34.55,16.11c1.64-.93,2.77-1.5,2.77-1.5,4.32-2.05,6.85-5.36,6.22-8.06a2.77,2.77,0,0,1-.15-1.68,3.94,3.94,0,0,1,1.19-1.34c3.62-2.85,10.55-4.24,15-3,3.73,1,5.52,3.43,9.22,4.45,3.9,1,9.07.32,13.85-.42a53.42,53.42,0,0,1,9.78-.92c3.15.11,6.09.94,7,2.58s-.35,3.77-.49,5.68c-.23,3.53,3.63,6.24,8.62,7.65s11,1.7,17,2,12,.6,16.93,2a20.6,20.6,0,0,1,7.87,4,2.67,2.67,0,0,1,1.26,2.27,5.07,5.07,0,0,1-1.42,2.13q-2.1,2.31-4.22,4.66c-.56.62-1.14,1.24-1.75,1.85,2.94.15,5.89.28,8.83.38,3.42-2.6,6.7-5.38,8.06-8.32s.32-6.23-3.77-7.48c-2.28-.69-5.22-.7-7.6-1.32s-4.19-2.19-2.67-3.79c1-1,3-1.68,4.92-2.14,15.05-3.7,31.66-3.15,45.31-8.87,7.8-3.29,13.46-8.21,21.3-11.47,9.19-3.87,21-4.9,29.24-2.57a27.59,27.59,0,0,1,9.2,4.55c3.94,2.91,6.81,6.58,6.11,10.76s-5.72,8.9-12.89,10.72c-6.05,1.52-12.06.77-17.94.53a104.81,104.81,0,0,0-17.15.71c-4.91.6-10.07,1.61-14.2,3.67-6.88,3.42-9.2,9-7.74,13.28a10.25,10.25,0,0,0,.4,1c3.52-.24,7-.53,10.52-.87a6.34,6.34,0,0,1,.64-4.52c1.84-3.45,6.11-5.14,9.75-5.91,13.68-2.85,26.29.6,39.93-1.71,4.82-.83,9.92-2.35,14.22-1.39a12.64,12.64,0,0,1,2.53.89q8.79-2.57,17.32-5.57a23.27,23.27,0,0,1-6.48-2.07,15.75,15.75,0,0,1-8.31-9.76v-1.76c.18-6-4.86-11.17-13.2-13.71a49.13,49.13,0,0,1-6.82-2.16c-1.94-1-3.19-2.55-2.25-4.24a13,13,0,0,1,2.36-2.5c2.78-2.74,3.59-5.94,2.17-8.46-.92-1.6-2.46-3.57,0-5.06a8,8,0,0,1,5.57-.64,10.62,10.62,0,0,1,3.79,2.05,21.91,21.91,0,0,0,12.32,4.21c9.54.29,19-4.91,26.55-9.59l12-7.45c3.44-2.12,7.59-4.49,12.05-4.58,2.7-.08,4.86.72,7.37,1.05a54.63,54.63,0,0,0,9.64-.07c13.81-.67,26.9,1.21,36.93,5.28A128.27,128.27,0,0,0,479.33,388.7ZM332.91,223.47c-.44-4.64,7.34-9.77,15.66-11.6a52.35,52.35,0,0,1,23.63.7,68,68,0,0,1,22.94,10.65c4.35,3.1,8.26,6.59,9,10.91a5,5,0,0,1-1.15,4.4c-1.2,1.41-3.32,2.55-5.33,3.68-5,2.82-9.84,5.81-13.28,9.23s-5.4,7.32-4.22,10.62c1.26,3.52,5.81,5.95,8.32,9.09s1.95,8.08-4.11,10.52a31.68,31.68,0,0,1-6,1.47,43.41,43.41,0,0,1-18.47-.83,8.2,8.2,0,0,1-4.89-4.72c-1.44-3.6-.29-8.25.76-12.62.95-4,1.86-8.33.42-11.68-1.21-2.8-4.2-4.19-5.23-7.13-.69-2-.38-4.41-.51-6.65C349.87,229.65,333.75,232.73,332.91,223.47ZM300.75,258.8c5.57-4.32,14.68-6.84,23.05-7.55,11.51-.95,23.21,1.68,25.34,7.76,1.85,5.24-3.66,11.49-3.49,17.08.24,7.21,9.69,11.89,18.56,16l29,13.24c11,5,22.67,10.85,22.68,19.82a8.52,8.52,0,0,1-2.85,6.43c-3.35,3.22-9.59,5.25-15.52,6.27-10.9,1.88-17.57.33-27.33-1.09-2-.29-4.45-.58-5.51-.87-.55-.16-2.45-.39-2.45-.39-6.07-1.08-7.92-1.34-12.35-3.54-2.86-1.44-5.28-3.33-5.4-5.75s1.87-4.84,2-7.21-1.78-4.61-3.71-6.6c-2.69-2.73-5.6-5.52-10.4-7-5-1.58-11.57-1.56-17.85-1.51s-12.83.09-17.92-1.42-8.31-5.11-5.71-8.78c1.35-1.89,3.93-3.49,6-5.23,5.87-5,6.59-11.39,1.76-15.34-1.31-1.07-3-2-3.73-3.26-1-1.77-.09-4,1.24-6A20.32,20.32,0,0,1,300.75,258.8Zm13.41,119.57c1.3,2.9,2.54,6.34-1.12,9.23a23.07,23.07,0,0,1-7,3.25,34,34,0,0,1-20.45,1.38c-4.07-1.13-9.19-4.4-13.06-5.63-2.74-.89-6.61-1.64-9.45-2.44s-5.08-2.41-4.46-4.45c.75-2.47,5.05-4.41,8.32-6.42,8.39-5.16,10.95-12.87,5.89-17.67-1.6-1.49-3.83-2.72-5.14-4.34s-1.47-3.83.84-5.59c4-3,11.12-2.37,16.94-3.71,8.12-1.84,13.06-7.46,20.86-10,8-2.61,16.5-1.34,23.57.27,7.57,1.74,14.95,3.83,20.3,7.2s8.47,8.17,6.65,13.41-9.34,10.68-18.36,12.22c-3.91.68-7.77.62-11.67,1s-8.21,1.21-11,3.14C311.91,372,312.84,375.5,314.16,378.37ZM157.23,326.26a34.22,34.22,0,0,0-12.59-7.78c-4.75-1.79-10.27-3-14.57-5.14s-7.41-5.37-5.83-9.09c1.36-3.25,6.14-6.25,11.47-8a57,57,0,0,1,16.68-2.39c10.83-.14,20.9,1.65,28.56,5.1,3,1.33,5.66,3,5.83,5.43.14,1.72-1.06,3.56-1.89,5.35-1.67,3.68-1.35,7.86,3.57,9.46,3.41,1.11,8.16.74,12.14,1.26s7.33,2.93,4.76,5.3a27.38,27.38,0,0,1-3.37,2.13c-3.81,2.54-3.46,5.85-3.62,8.8-.25,4.19-2.11,8.58-5.45,12.75a6.52,6.52,0,0,1-.91,1.15c-6.32,4.91-11.13,11.41-20.59,13.6-6.39,1.49-12.43-.34-15.7-3-4-3.31-5.05-8-2.86-12.54,2.07-4.36,6.94-8.64,8-13C161.65,332.16,159.89,329,157.23,326.26ZM212,289.81c1.79-5.16,11.45-9.79,20.35-10.43s16.48,2.17,19.92,6.34c2.85,3.46,3.18,7.7,4.8,11.54a24.86,24.86,0,0,0,8.59,10.29,22.17,22.17,0,0,0,7.78,3.7c7.25,1.77,16.71.16,25.48-.9a89.8,89.8,0,0,1,18.47-.72c5.84.55,11.12,2.17,13.73,5,1.81,2,3,5.31.25,7.62s-7.79,2.6-11.16,1.47a7.39,7.39,0,0,0-2.08-.12,68.41,68.41,0,0,0-16.63,3.3c-6.46,2.26-11.87,5.6-18.22,8s-14.65,3.76-19.28,1.51c-6.63-3.2-1-10.77-4.65-15.43-2.55-3.32-9.27-4.59-15.77-5.18a90.25,90.25,0,0,0-15.8-.16c-5.19.47-10.47,1.53-15.55,1.62s-9.94-.86-13.33-2.68c-2.3-1.23-4-3.15-2.62-5.21,2-3,8.82-4.22,12.44-6.83C214,298.78,210.51,294.18,212,289.81Zm-12.84,69.3q4.33-11.79,8.65-23.56c1.08-2.93,2.21-6,5.24-8.67,4-3.54,11-6.06,17.58-6.3s12.21,1.86,14,5.17c1.21,2.19.85,4.77,1.17,7.17a14.76,14.76,0,0,0,5.65,9.51c2,1.66,4.5,3.76,2.14,5.87s-7.22,2.12-11.16,2.68a30.5,30.5,0,0,0-16.75,8.15c-3.72,3.74-5.45,7.79-7.1,11.76q-1.86,4.41-3.73,8.87a14.91,14.91,0,0,1-3.37,5.47c-3.52,3.42-10.67,5.65-16.82,5.66s-12-1.67-14.09-4.73a7.24,7.24,0,0,1-.49-1.26c-.13-2.81,1.86-4.5,4.72-7.23,1.89-1.8,4.33-3.44,6.3-5.22C195.78,368.28,197.53,363.61,199.18,359.11Zm-1.46,38.13c2.4-1.22,5.62-1.86,8.36-2.74,9.07-5,16-11.39,19.47-17.9,1.92-3.62,2.83-7.27,4.86-10.9a23.39,23.39,0,0,1,11-9.8,9.32,9.32,0,0,1,2.61-.81,8.6,8.6,0,0,1,3.3.38c6.18,1.6,12.84,3.59,14.15,7.58,1.1,3.35-1.95,7.28-6.1,10.51-3.88,3-9.09,6.15-9.18,9.46,0,2.1,2.15,3.75,4.83,4.86,6,2.44,14.37,2.68,21.35,4.29s12.86,5.69,9.58,10.44c-4.24,6.11-19.26,8-25.84,13.65-2.55,2.18-3.58,4.74-6.34,6.86-4.53,3.47-12.77,4.8-18.86,3.93a27,27,0,0,1-13.82-6.34c-3.44-2.83-6.27-6-10.58-8.35-3.64-2-8.34-3.49-11-6S192.86,399.7,197.72,397.24ZM222.38,245a7.51,7.51,0,0,1,.32-9.95c4.52-5.37,15.78-8.58,25.14-8.64s17.27,2.26,24.82,4.57c11.1,3.41,23,7.47,25.13,15a3.73,3.73,0,0,1-.22,3,12.15,12.15,0,0,1-3.15,2.94c-6.87,5.17-13.77,10.89-14.76,16.71-.75,4.31,1.87,8.15,5.36,11.44,1.62,1.55,3.5,3.35,2.1,5.39-1,1.48-3.5,2.6-5,4-3.38,3.24-1,7.56-6.11,10-4.38,2.12-10.23.49-11.5-2.14s.18-5.77.38-8.68c.29-4.63-2.86-8.83-8.54-11.35-3.77-1.67-9-3.42-7.43-6.54a16,16,0,0,1,1.93-2.3c3.31-3.73,2.22-8.07-2.51-10.1-6.1-1.76-10.54-4-15.75-6.44C228.49,250.05,224.6,247.88,222.38,245ZM115.31,285.27c-1.17-.72-2.22-1.6-2-2.72.37-2,4.32-3.5,6.15-5.4,3.09-3.22-.72-6.25-4.5-8.26-3.53-1.85-7.24-3.67-9.53-6.15-3.5-3.78-3.31-9,.52-13.64s11.22-8.79,19.44-10.78c9-2.16,19.85-1.19,21.85,3.54a10.56,10.56,0,0,1,.34,4.31c-.14,6.89,4.68,13.8,15.73,15.26,7.26,1,15.72-.57,23.77-1.54a155.46,155.46,0,0,1,43.08.63c6.79,1.13,14,3.66,12.65,8.1-.91,3-5.72,5.78-10.78,7.21s-10.42,1.76-15.62,2.08c-3.35,1.36-10,4.07-11.9,6.69-1.52,2.1-.81,4.19-.67,6.23a6,6,0,0,1-3.94,6,13.27,13.27,0,0,1-9.13.24c-2.48-.88-4-2.35-5.89-3.63-4.88-3.45-12-5.79-20.43-6.09-11-.41-23.13,2.62-34,2C124.43,289.07,119.09,287.6,115.31,285.27ZM94.85,358.88c-2.51-1.25-5.49-3.38-6.85-6.08s-.16-6.09,3.1-8.87c4-3.46,11.42-6.76,10.58-10.29-.33-1.43-2.07-2.44-3.73-3.38q-6.21-3.43-12.39-6.91c-2.46-1.38-5.07-3-4.73-5.23.26-1.68,2.22-3.4,4.56-4.75,7-4,18.15-5.09,24.33-2.36,4,1.78,5.8,4.75,9,7,3.82,2.63,9.5,4.14,15.06,5.6s11.22,2.94,15.11,5.55,5.64,6.62,2.69,10.48c-2.13,2.74-6.39,5.13-7.9,7.94s-.79,6-5,7.62c-2.79,1.06-5.92.58-8.93.71-5.69.22-11.2,2.68-16.85,4.15S98.65,360.8,94.85,358.88Zm51.88,80.58c-5.06,2.66-11.11,1.61-17.25,2.52-2.61.39-5.11.11-7.71.25s-5.75,1-6.72,2.48a2,2,0,0,0,0,2.24c.87,1.52,2.7,2.69,3.75,4.14s1.13,3.46-1.08,4.94c-2.66,1.78-7.13,1.83-10.22,1.12-9.31-2.15-12.29-8.54-13.43-14.58s-1.46-12.64-7.83-16.88c-5.53-3.68-14.66-4.91-22.44-7.05s-14.93-6.1-13.3-11.67c.85-2.8,3.84-5.56,7.35-8a50.88,50.88,0,0,1,19.63-8.13c7.45-1.32,15.37-.49,19,2.66,2.4,2.08,2.79,4.91,3.9,7.45a9.21,9.21,0,0,0,8,5.55c6,.66,13.18-2.52,19.47-2.3,6.62.21,9.7,3.93,11.92,7.3,3.09,4.68,6.16,9.36,9.26,14,1.39,2.13,2.82,4.3,2.83,6.75S150.3,437.57,146.73,439.46Zm4.44-27.09c-2.3-9.51-10.26-17.83-22.39-23.39-6.22-2.84-13.58-5-18.19-8.76s-5.63-9.75.74-14.24c6.57-4.65,18-5.54,26-3.84s13.63,5.29,20.43,8a17.08,17.08,0,0,0,7.09,1.47c7.07-.21,12.18-6.55,19.4-7.57.78-.12,3-.23,3.67.87,1.14,2-2.44,6.55-5.27,9.19s-6.89,4.87-10.06,7.4-5.44,5.79-3.66,8.11c2.77,3.64,13.6,3.08,15.81,6.89,2.09,3.57-4.79,8.07-5.58,12.2-1.09,5.52,9,9.41,5.15,14.93-2.07,3-8,5.21-13.2,5.44a21.77,21.77,0,0,1-12.71-3.16,13.78,13.78,0,0,1-5.28-5.85C152,417.61,151.81,414.94,151.17,412.37Zm139.94,31.07c-8.25,6.55-21.88,10.52-34.54,11.7-9.87.92-20.74.68-29,4.87-1.83.9-3.43,2-5.38,2.8-3.74,1.51-8.16,1.66-12.15,1.57-6-.14-12.5-.95-14.59-4-1.54-2.25-.26-5.11.37-7.79s.2-5.66-3.54-6.7-8.67.27-13.2,1a50.86,50.86,0,0,1-17.24,0c-4.85-.92-9.26-3.13-8.41-6.37.74-2.82,5.46-5.44,10.33-6.51a44.58,44.58,0,0,1,14.3-.39l1.3-.35c5.59-2.44,9.81-6.08,11.31-9.74.71-1.73.86-3.5,2.06-5.2a9.41,9.41,0,0,1,6.9-3.57,6.28,6.28,0,0,1,6.17,3.64c2.39,4.31,4.85,8.72,10,11.87s13.79,4.75,22.25,2.67c5.29-1.29,9.75-3.81,14.6-5.79a70.91,70.91,0,0,1,24.85-5.1c5-.09,10,.44,13.66,1.93C300.3,427.75,299.35,436.9,291.11,443.44Zm101.61-42c-1.93,3.1-5.73,5.89-9.71,8.48a34.92,34.92,0,0,1-9.41,4.59,32.35,32.35,0,0,1-13.11.63A32,32,0,0,1,350.27,412c-2.55-1.34-4.72-3.07-8.28-3.54-5.91-.82-14,3-14.3,6.75-.22,3.24,4.4,5.47,4,8.72-.35,2.84-4.39,5.54-8.17,7.88-2.66,1.66-5.73,3.45-9.24,3.78a9,9,0,0,1-7.48-2.42c-1.37-1.55-1.76-3.43-2.56-5.17-1.56-3.31-4.8-6.16-9.27-8.16l-.94-.18c-4.21-2.86-13-1.58-20.23-1.53-1.52,0-3.26-.15-3.54-1-.14-.4.13-.85.43-1.26,3.83-5,16.42-7.35,18.87-12.41.72-1.46.42-2.95,1.6-4.35,1.76-2.11,6.13-3.24,9.9-3.59s7.49-.21,11.23-1c5.24-1.17,9.68-4.31,10.35-7.34,1-4.35-4.95-7.92-1.95-12.24,1.84-2.64,6.6-4.59,11.21-5.56s9.27-1.18,13.92-1.79a68.94,68.94,0,0,1,8.94-1c5.94-.07,10.36,2.07,14.11,4.25a92.6,92.6,0,0,1,19.36,14.76C392.66,390.19,396.35,395.65,392.72,401.46Z" style="fill:#3F7929"></path></g><path d="M422.53,233.21l-.48-.28a60,60,0,0,0-1.46,8.08c-1.08,10,.29,20,.23,30.06s-1.78,20.58-8.06,28.4c-8.33,10.36-23.84,15-27.87,27.71-2.08,6.54-.45,13.6-.65,20.45-1.09,37.05-47.45,35.73-65.15,61-6.36,9.07-9.39,20.68-17.89,27.79-9.15,7.66-22.5,8.25-32.24,15.13-7.58,5.36-13,14.45-22,16.52-8,1.83-16.24-2.74-21.92-8.69s-9.67-13.31-15.15-19.44c-15.21-17-40-22.8-55.66-39.38-7.95-8.4-13.75-18.34-18.22-28.59-5.11-11.74-14.26-18.18-23.88-26.24-8.1-6.78-15.33-14.87-19.63-24.52-5.55-12.47-5.86-26.52-7.8-40s-6.23-27.78-17.11-36a29.47,29.47,0,0,0-4.13-2.64c-81,58.24-76.33,145.47,14,200.36,95.29,57.89,249.77,57.89,345.06,0S517.81,291.1,422.53,233.21Z" style="opacity:0.05"></path><path d="M422.53,442.85c69.79-42.4,88.45-104.1,56-156.83-1.81,1.4-3.65,2.77-5.53,4.07-11.95,8.24-25.8,14.89-33.64,27.1-8.78,13.67-3.13,31.14-11.12,43.79-7.77,12.29-22.16,22.95-35.26,28.69-12.48,5.48-26.52,7.88-37.5,16-14.66,10.78-21.66,30.14-37.29,39.45-12,7.16-27.45,7.23-39,15.17-9.27,6.39-15.44,17.5-26.17,20.89-9.78,3.08-20.43-1.35-28.61-7.53-6.12-4.64-11-11.43-17.16-15.78-7-5-16.84-7.69-24.69-11.14-14.22-6.27-29.29-13.26-37.44-26.49-2.88-4.67-4.75-9.93-7.86-14.45-10-14.48-29.48-17.86-44.87-26.34a69.94,69.94,0,0,1-31.7-36.94c-2.68-7.31-4.12-15.07-7.47-22.09-5.47-11.47-16.43-20.52-29-22.33a31.79,31.79,0,0,0-9.24.06C-7.86,348,13,403.65,77.47,442.85,172.76,500.74,327.24,500.74,422.53,442.85Z" style="opacity:0.07"></path><path d="M152.83,454c-9.59-4.52-19.13-9.46-27-16.52-7.29-6.51-13-14.71-21-20.44-20.14-14.62-49.58-10.3-69.76-24.86-7-5.06-12.35-12-17.52-19-1-1.36-2.35-2.88-4.05-2.7a2.75,2.75,0,0,0-1.4.57c9.85,26.31,31.62,51.32,65.35,71.81,41.94,25.48,95.34,39.74,150.12,42.79-2.64-1.53-5.29-3-8-4.3C197.94,471,174.69,464.25,152.83,454ZM492,337.12c-9.23,4.25-16,12.55-21.15,21.3s-9.06,18.23-14.54,26.79c-1.25,1.94-2.59,3.84-4,5.68-7.29,5.8-14,12.81-21.29,18.59a93.67,93.67,0,0,1-20.52,12.29h.26a103.11,103.11,0,0,1-16.92,5.47c-11.79,2.67-24.65,3.27-34.42,10.39S344.5,457.38,333.82,463c-7.29,3.84-16,3.76-23.82,6.35-9,3-16.62,9.37-24.29,15.32,50.07-4.48,98.28-18.42,136.82-41.83,48.32-29.36,72.12-68,71.43-106.45A14,14,0,0,0,492,337.12Z" style="opacity:0.1"></path></g></g><g id="freepik--Iceberg--inject-168"><g id="freepik--iceberg--inject-168"><polygon points="165.6 218.06 157.81 258.73 172.12 311.46 189.46 319.66 195.82 383.94 244.91 456.37 260.07 438.81 261.83 420.58 292.32 388.65 302.26 350.02 312.22 346.28 326.21 313.86 342.17 268.2 336 221.4 165.6 218.06" style="fill:#3F7929"></polygon><polygon points="165.6 218.06 157.81 258.73 172.12 311.46 189.46 319.66 195.82 383.94 244.91 456.37 260.07 438.81 261.83 420.58 292.32 388.65 302.26 350.02 312.22 346.28 326.21 313.86 342.17 268.2 336 221.4 165.6 218.06" style="fill:#fff;opacity:0.4"></polygon><polygon points="327.44 247.34 336 261.83 331.38 288.04 331.72 261.12 327.44 247.34" style="fill:#3F7929;opacity:0.30000000000000004"></polygon><polygon points="189.46 319.66 185.05 291.01 192.45 254.37 175.9 289.35 172.12 311.46 189.46 319.66" style="fill:#3F7929;opacity:0.30000000000000004"></polygon><polygon points="227.81 253.7 250.99 285.87 255.65 371.17 261.77 280.98 261.77 253.41 227.81 253.7" style="fill:#3F7929;opacity:0.30000000000000004"></polygon><polygon points="260.07 438.81 235.93 395.8 235.93 311.96 261.83 420.58 260.07 438.81" style="fill:#3F7929;opacity:0.30000000000000004"></polygon><polygon points="261.83 420.58 235.93 395.8 260.07 438.81 261.83 420.58" style="fill:#3F7929;opacity:0.30000000000000004"></polygon><polygon points="292.32 388.65 280.79 331.55 303.26 266.82 302.26 350.02 292.32 388.65" style="fill:#3F7929;opacity:0.30000000000000004"></polygon><polygon points="292.32 388.65 280.79 331.55 302.26 350.02 292.32 388.65" style="fill:#3F7929;opacity:0.30000000000000004"></polygon><polygon points="312.22 346.28 321.01 287.92 319.21 259.21 326.21 281.41 326.21 313.86 312.22 346.28" style="fill:#3F7929;opacity:0.30000000000000004"></polygon><polygon points="326.21 281.41 321.01 287.92 312.22 346.28 326.21 313.86 326.21 281.41" style="fill:#3F7929;opacity:0.30000000000000004"></polygon><polygon points="203.82 307.53 209.49 368.33 222.14 387.96 222.14 354.85 203.82 307.53" style="fill:#3F7929;opacity:0.30000000000000004"></polygon><polygon points="209.49 368.33 222.14 354.85 222.14 387.96 209.49 368.33" style="fill:#3F7929;opacity:0.30000000000000004"></polygon><polygon points="178.79 231.87 167.44 246.55 173.11 275.5 173.11 247.64 178.79 231.87" style="fill:#3F7929;opacity:0.30000000000000004"></polygon><polygon points="207.6 257.18 221.79 283.32 218.49 310.75 228.91 331.55 222.14 307.25 230.95 277.04 207.6 257.18" style="fill:#3F7929;opacity:0.30000000000000004"></polygon><polygon points="290.52 250.47 275.04 268.51 278.78 289.13 270.52 322.57 284.11 287.01 280.52 269.01 290.52 250.47" style="fill:#3F7929;opacity:0.30000000000000004"></polygon><polygon points="275.04 353.51 280.52 372.05 271.69 380.69 266.95 402.34 269.07 375.87 277.08 370.42 275.04 353.51" style="fill:#3F7929;opacity:0.30000000000000004"></polygon><polygon points="261.77 253.41 250.99 285.87 255.65 371.17 261.77 280.98 261.77 253.41" style="fill:#3F7929;opacity:0.30000000000000004"></polygon><path d="M265.62,193a209.83,209.83,0,0,0-30.11.75c-13.72,1.32-27.63,1.78-41.13,5.14-11.21,2.79-22.55,5.22-32.93,10.47a19.79,19.79,0,0,0-5,3.34c-2.6,2.55-3.73,5.84-.9,8.61,2.21,2.18,5.85,3,8.67,4.18,1.85.75,3.84,1.31,5.29,2.77,2.36,2.36,2.64,6.35,5.25,8.42a8.79,8.79,0,0,0,3.94,1.57c5.2,1,10.56.09,15.84.34a36.83,36.83,0,0,1,19.58,6.83c3.8,2.73,7,7,12.11,7,2.51,0,4.82-1.29,7.28-1.79,3.63-.73,7.38.23,10.86,1.48s6.91,2.79,10.58,3.27a18.6,18.6,0,0,0,12.87-3.15c3.72-2.37,7.19-5.42,11.56-6.53,5.74-1.45,11.87.84,17.7-.23,1.79-.34,3.52-1,5.29-1.44a22.21,22.21,0,0,1,10.92-.3c3.29.79,7.57,1.32,10.58-.59,2.68-1.76,4-5,5.65-7.59,2-3.15,4.67-4.14,8-5.8,3.79-1.87,8-4.34,8.69-8.52a8.7,8.7,0,0,0-2.38-6.93c-4.71-5.29-13.16-8.38-19.67-10.64C305.22,197.08,285.56,193.94,265.62,193Z" style="fill:#fff;opacity:0.30000000000000004"></path><path d="M150.06,219.2c.43,2.87,2.64,5,5.64,6.27,2.52,1.09,5.26,1.71,7.57,3.19,1.21.76,2.36,2.3,1.58,3.48a2.81,2.81,0,0,1-2.27,1,19.36,19.36,0,0,1-11.44-3.41,14.43,14.43,0,0,1-3.74-3.26,10.06,10.06,0,0,1-1-10.35,9.88,9.88,0,0,1,4-4.15,10.11,10.11,0,0,1,2.77-1.06c.38-.08,1.4-.37,1.59.11s-.63.77-.88.94c-.45.31-.89.62-1.31,1a9.54,9.54,0,0,0-1.41,1.36,4.34,4.34,0,0,0-.9,1.76A8,8,0,0,0,150.06,219.2Z" style="fill:#fff;opacity:0.30000000000000004"></path><path d="M222.81,254.32a26.47,26.47,0,0,0,7-.16,3.13,3.13,0,0,1,1.43.07,1.1,1.1,0,0,1,.78,1.1,1.52,1.52,0,0,1-.59.87,11.29,11.29,0,0,1-13.64.62,7.91,7.91,0,0,1-2.65-3.25c-.26-.64-.89-2.44-.08-2.92s2.74,1.65,3.44,2.09A11.11,11.11,0,0,0,222.81,254.32Z" style="fill:#fff;opacity:0.30000000000000004"></path><path d="M302.8,247.44c-1.08.39-3.17,1.84-.66,2,1.17.1,2.42,0,3.6,0a42.44,42.44,0,0,1,9.78,1.21c4.18,1,9.15,2.73,13.37,1,3.14-1.27,5.16-4.37,6.36-7.53a6.91,6.91,0,0,0,.58-3.09,2.83,2.83,0,0,0-1.72-2.46,3.11,3.11,0,0,0-3,.92,18.55,18.55,0,0,0-2,2.66C322.58,251.19,311.38,244.31,302.8,247.44Z" style="fill:#fff;opacity:0.30000000000000004"></path><path d="M347,214a16.11,16.11,0,0,1,2.52,4.11,7.3,7.3,0,0,1-2,7.89c-.64.63-2.81,2-1.53,2.8s4.15-1,5.17-1.6a15.56,15.56,0,0,0,1.87-1.14c4.25-3.11,4-8.66.64-12.36-1.3-1.43-3.72-3.52-5.74-3.73C345.16,209.65,345.92,212.55,347,214Z" style="fill:#fff;opacity:0.30000000000000004"></path><polygon points="165.6 218.06 182.52 230.56 208.22 236.32 214.78 237.96 227.81 246.01 261.77 245.78 290.52 237.39 315.15 238.7 336 221.4 330.47 180.71 316 165.32 302.26 177.3 278.78 128.15 270.52 134.07 246.12 93.24 235.23 110.51 229.48 125.31 207.6 130.56 192.45 170.7 177.35 176.13 165.6 218.06" style="fill:#fff"></polygon><polygon points="192.45 170.7 184.36 195.5 177.35 176.13 192.45 170.7" style="fill:#3F7929;opacity:0.05"></polygon><polygon points="207.6 130.56 214.22 169.79 229.48 125.31 207.6 130.56" style="fill:#3F7929;opacity:0.05"></polygon><polygon points="246.12 93.24 251.96 150.17 270.52 134.07 246.12 93.24" style="fill:#3F7929;opacity:0.05"></polygon><polygon points="278.78 128.15 285.05 189.94 302.26 177.3 278.78 128.15" style="fill:#3F7929;opacity:0.05"></polygon><polygon points="316 165.32 336 221.4 330.47 180.71 316 165.32" style="fill:#3F7929;opacity:0.05"></polygon><polygon points="222.07 183.44 207.6 201.48 184.36 195.5 222.07 183.44" style="fill:#3F7929;opacity:0.30000000000000004"></polygon><polygon points="182.52 230.56 184.36 195.5 177.35 176.13 165.6 218.06 182.52 230.56" style="fill:#3F7929;opacity:0.1"></polygon><polygon points="222.07 183.44 229.37 199.03 214.78 237.96 207.6 201.48 222.07 183.44" style="fill:#3F7929;opacity:0.1"></polygon><polygon points="251.96 150.17 275.04 166.47 260.07 166.47 251.96 150.17" style="fill:#3F7929;opacity:0.30000000000000004"></polygon><polygon points="275.04 166.47 261.77 245.78 260.07 166.47 275.04 166.47" style="fill:#3F7929;opacity:0.1"></polygon><polygon points="290.52 213.99 310.84 220.35 324.76 212.94 290.52 213.99" style="fill:#3F7929;opacity:0.30000000000000004"></polygon><polygon points="336 221.4 324.76 212.94 310.84 220.35 315.15 238.7 336 221.4" style="fill:#3F7929;opacity:0.1"></polygon><polygon points="290.52 213.99 290.52 237.39 315.15 238.7 310.84 220.35 290.52 213.99" style="fill:#3F7929;opacity:0.05"></polygon><polygon points="229.48 125.31 207.6 130.56 227.11 132.23 229.48 125.31" style="fill:#3F7929;opacity:0.15"></polygon><polygon points="302.26 177.3 285.05 189.94 284.11 180.7 302.26 177.3" style="fill:#3F7929;opacity:0.15"></polygon><polygon points="227.81 246.01 235.78 214.45 261.44 230.23 261.77 245.78 227.81 246.01" style="fill:#3F7929;opacity:0.05"></polygon><polygon points="241.94 150.99 234.82 166.47 237.17 187.57 233.49 204.62 241.94 185.9 238.75 164.3 241.94 150.99" style="fill:#3F7929;opacity:0.05"></polygon><polygon points="304.45 183.62 312.04 194.85 315.07 211.73 316 193.21 304.45 183.62" style="fill:#3F7929;opacity:0.05"></polygon></g></g><g id="freepik--Whales--inject-168"><g id="freepik--Whale--inject-168"><path d="M384.31,375.94c-1.63-1-3.95-1.54-8.55-.89s-8.66,1.52-12.91-.28-8.25-3.66-8.25-3.66a10.53,10.53,0,0,1,.89-4.45c.9-1.75,1.89-3,0-2.68s-3.51,1-5.69,3.28-1.6,2.91-5.64,3.4-6.07.44-12.09-.14-9.36-.15-12.34,3.49c-1.45,2,2.75,4,4.8,5.34a30.22,30.22,0,0,0,4.57,2.31s-1.7,3.72-2.05,4.53,3.34,1.81,7.07-2.9c0,0,.13,4.14.84,5.66s2.89,2.9,3.65,1.67,1.05-5.47,1.05-5.47a40.7,40.7,0,0,0,7.06,2.31c5.94,1,12.32,1,23-1.86s16.07-7.24,16.07-7.24.4,1,3.53,2,4.48,1.17,3.22-.14-2.77-3.32-2.77-4.49,1.14-3.47.68-3.7S384.31,375.94,384.31,375.94Z" style="fill:#3F7929"></path><path d="M384.31,375.94c-1.63-1-3.95-1.54-8.55-.89s-8.66,1.52-12.91-.28-8.25-3.66-8.25-3.66a10.53,10.53,0,0,1,.89-4.45c.9-1.75,1.89-3,0-2.68s-3.51,1-5.69,3.28-1.6,2.91-5.64,3.4-6.07.44-12.09-.14-9.36-.15-12.34,3.49c-1.45,2,2.75,4,4.8,5.34a30.22,30.22,0,0,0,4.57,2.31s-1.7,3.72-2.05,4.53,3.34,1.81,7.07-2.9c0,0,.13,4.14.84,5.66s2.89,2.9,3.65,1.67,1.05-5.47,1.05-5.47a40.7,40.7,0,0,0,7.06,2.31c5.94,1,12.32,1,23-1.86s16.07-7.24,16.07-7.24.4,1,3.53,2,4.48,1.17,3.22-.14-2.77-3.32-2.77-4.49,1.14-3.47.68-3.7S384.31,375.94,384.31,375.94Z" style="opacity:0.5"></path><path d="M331.5,377.75c-2.71-1.36-8.76-2.19-12-3.2-.46,1.84,3.18,3.61,5,4.8a30.22,30.22,0,0,0,4.57,2.31l4.21,1.34C335.38,380.53,334.61,379.32,331.5,377.75Z" style="fill:#3F7929"></path><path d="M324.78,373.62c.29.48,1.68,1,3.75,1.13a15.46,15.46,0,0,0,4.38-.18c.35-.18.08-.69-2-1.66a5.77,5.77,0,0,0-4.39-.61C325,372.62,324.61,373.35,324.78,373.62Z" style="fill:#3F7929"></path><path d="M367.58,379.09c-3.57-.38-7.32,2.63-10.63,5.06s-6.05,3.81-8.76,3.54c5.25.74,11.08.55,20-1.7-1.08.26-1.51-.71-2.75-.84s-1.5,1.13-2.81,1.25-1.69-.56-.86-1.63,5.49-1.3,7.24-2.74S371.14,379.46,367.58,379.09Z" style="fill:#3F7929"></path><path d="M385.8,378.36l-1.48-.86c-1-.59-.45.25-.74,1.28a5.38,5.38,0,0,1-1.76,2.1A28.41,28.41,0,0,0,385.8,378.36Z" style="fill:#3F7929"></path></g><g id="freepik--whale--inject-168"><path d="M84.47,344.72c2.09-1.27,5.07-2,11-1.15s11.1,1.95,16.55-.36,10.57-4.69,10.57-4.69a13.45,13.45,0,0,0-1.14-5.71c-1.15-2.24-2.42-3.81,0-3.43s4.5,1.3,7.29,4.21,2.05,3.72,7.23,4.36,7.78.56,15.49-.18,12-.19,15.82,4.47c1.85,2.61-3.53,5.16-6.16,6.85a39.13,39.13,0,0,1-5.85,3s2.18,4.77,2.62,5.81-4.27,2.32-9-3.72c0,0-.17,5.3-1.08,7.25-.83,1.79-3.7,3.72-4.68,2.15s-1.34-7-1.34-7a52,52,0,0,1-9,3c-7.61,1.34-15.79,1.28-29.49-2.38s-20.59-9.28-20.59-9.28-.51,1.34-4.53,2.61-5.74,1.5-4.12-.18,3.54-4.25,3.54-5.75S76,340,76.6,339.74,84.47,344.72,84.47,344.72Z" style="fill:#3F7929"></path><path d="M84.47,344.72c2.09-1.27,5.07-2,11-1.15s11.1,1.95,16.55-.36,10.57-4.69,10.57-4.69a13.45,13.45,0,0,0-1.14-5.71c-1.15-2.24-2.42-3.81,0-3.43s4.5,1.3,7.29,4.21,2.05,3.72,7.23,4.36,7.78.56,15.49-.18,12-.19,15.82,4.47c1.85,2.61-3.53,5.16-6.16,6.85a39.13,39.13,0,0,1-5.85,3s2.18,4.77,2.62,5.81-4.27,2.32-9-3.72c0,0-.17,5.3-1.08,7.25-.83,1.79-3.7,3.72-4.68,2.15s-1.34-7-1.34-7a52,52,0,0,1-9,3c-7.61,1.34-15.79,1.28-29.49-2.38s-20.59-9.28-20.59-9.28-.51,1.34-4.53,2.61-5.74,1.5-4.12-.18,3.54-4.25,3.54-5.75S76,340,76.6,339.74,84.47,344.72,84.47,344.72Z" style="opacity:0.5"></path><path d="M152.15,347c3.47-1.75,11.23-2.81,15.4-4.1.59,2.36-4.07,4.62-6.47,6.16a39.13,39.13,0,0,1-5.85,3l-5.39,1.72C147.18,350.59,148.18,349,152.15,347Z" style="fill:#3F7929"></path><path d="M160.77,341.74c-.37.61-2.15,1.27-4.81,1.44a20.24,20.24,0,0,1-5.61-.22c-.45-.23-.11-.89,2.5-2.14a7.5,7.5,0,0,1,5.62-.78C160.52,340.45,161,341.39,160.77,341.74Z" style="fill:#3F7929"></path><path d="M105.92,348.75c4.57-.48,9.37,3.36,13.62,6.49s7.75,4.88,11.23,4.53c-6.73,1-14.2.7-25.65-2.18,1.39.34,1.93-.91,3.52-1.07s1.93,1.44,3.61,1.6,2.16-.72,1.1-2.09-7-1.67-9.27-3.52S101.35,349.23,105.92,348.75Z" style="fill:#3F7929"></path><path d="M82.57,347.81l1.89-1.1c1.32-.76.58.32,1,1.64A6.87,6.87,0,0,0,87.66,351,35.61,35.61,0,0,1,82.57,347.81Z" style="fill:#3F7929"></path></g></g><g id="freepik--Sun--inject-168"><circle id="freepik--sun--inject-168" cx="397.99" cy="83.58" r="12.19" style="fill:#3F7929"></circle></g></svg>